
Black.Swan.2010.1080p.BRRip.XviD.DTS-RSB


Plot:

Nina (Portman) is a ballerina in a New York City ballet company whose life, like all those in her profession, is completely consumed with dance. She lives with her obsessive former ballerina mother Erica (Hershey) who exerts a suffocating control over her. When artistic director Thomas Leroy (Cassel) decides to replace prima ballerina Beth MacIntyre (Ryder) for the opening production of their new season, Swan Lake, Nina is his first choice. But Nina has competition: a new dancer, Lily (Kunis), who impresses Leroy as well. Swan Lake requires a dancer who can play both the White Swan with innocence and grace, and the Black Swan, who represents guile and sensuality. Nina fits the White Swan role perfectly but Lily is the personification of the Black Swan. As the two young dancers expand their rivalry into a twisted friendship, Nina begins to get more in touch with her dark side - a recklessness that threatens to destroy her.


Cast:

Natalie Portman	... 	Nina Sayers
Mila Kunis	... 	Lily
Vincent Cassel	... 	Thomas Leroy
Barbara Hershey	... 	Erica Sayers
Winona Ryder	... 	Beth Macintyre
Benjamin Millepied	... 	David
Ksenia Solo	... 	Veronica
Kristina Anapau	... 	Galina
Janet Montgomery	... 	Madeline
Sebastian Stan	... 	Andrew
Toby Hemingway	... 	Tom
Sergio Torrado	... 	Sergio
Mark Margolis	... 	Mr. Fithian
Tina Sloan	... 	Mrs. Fithian
Abraham Aronofsky	... 	Mr. Stein
Charlotte Aronofsky	... 	Mrs. Stein
Marcia Jean Kurtz	... 	Georgina
Shaun O'Hagan	... 	Sebastian
Christopher Gartin	... 	Waiter Scott
Deborah Offner	... 	Susie


SOURCE: Black.Swan.2010.BluRay.1080p.DTS.x264-CHD

AUDIO LANGUAGE: English


Format                           : AVI
Format/Info                      : Audio Video Interleave
Format profile                   : OpenDML
File size                        : 6.97 GiB
Duration                         : 1h 48mn
Overall bit rate                 : 9 227 Kbps
Writing application              : VirtualDubMod 1.5.10.3 | www.virtualdub-fr.org || (build 2550/release)
Writing library                  : VirtualDubMod build 2550/release

Video
ID                               : 0
Format                           : MPEG-4 Visual
Format profile                   : Advanced Simple@L5
Format settings, BVOP            : 3
Format settings, QPel            : No
Format settings, GMC             : No warppoints
Format settings, Matrix          : Default (MPEG)
Codec ID                         : XVID
Codec ID/Hint                    : XviD
Duration                         : 1h 48mn
Bit rate                         : 7 710 Kbps
Width                            : 1 920 pixels
Height                           : 1 080 pixels
Display aspect ratio             : 16:9
Frame rate                       : 23.976 fps
Color space                      : YUV
Chroma subsampling               : 4:2:0
Bit depth                        : 8 bits
Scan type                        : Progressive
Compression mode                 : Lossy
Bits/(Pixel*Frame)               : 0.155
Stream size                      : 5.82 GiB (84%)
Writing library                  : XviD 1.2.1 (UTC 2008-12-04)

Audio
ID                               : 1
Format                           : DTS
Format/Info                      : Digital Theater Systems
Codec ID                         : 2001
Codec ID/Info                    : Digital Theater Systems
Duration                         : 1h 48mn
Bit rate mode                    : Constant
Bit rate                         : 1 510 Kbps
Channel(s)                       : 6 channels
Channel positions                : Front: L C R, Side: L R, LFE
Sampling rate                    : 48.0 KHz
Bit depth                        : 24 bits
Compression mode                 : Lossy
Stream size                      : 1.14 GiB (16%)
Alignment                        : Split accross interleaves
Interleave, duration             : 42 ms (1.00 video frame)
Interleave, preload duration     : 500 ms


          EnJoY iT ! :)


